<svg width="26" height="26" viewBox="0 0 26 26" fill="none" xmlns="http://www.w3.org/2000/svg">
<mask id="path-1-inside-1_607_496" fill="white">
<path d="M17.9451 0H7.61359C5.59485 0.00237237 3.65948 0.805452 2.23214 2.23304C0.804789 3.66062 0.00203295 5.59611 0 7.61485L0 17.9464C0.00237237 19.9651 0.805454 21.9005 2.23304 23.3278C3.66063 24.7551 5.59613 25.5579 7.61487 25.5599H17.9464C19.9652 25.5576 21.9005 24.7545 23.3279 23.3269C24.7552 21.8993 25.558 19.9638 25.56 17.9451V7.61357C25.5576 5.59483 24.7545 3.65947 23.327 2.23213C21.8994 0.804787 19.9639 0.00203294 17.9451 0V0ZM22.9893 17.9451C22.9893 18.6075 22.8588 19.2634 22.6053 19.8754C22.3518 20.4874 21.9803 21.0434 21.5119 21.5118C21.0435 21.9802 20.4874 22.3518 19.8754 22.6053C19.2635 22.8587 18.6075 22.9892 17.9451 22.9892H7.61359C6.27602 22.9889 4.99335 22.4573 4.04767 21.5114C3.10198 20.5654 2.57072 19.2826 2.57072 17.9451V7.61357C2.57106 6.276 3.10265 4.99334 4.04857 4.04766C4.9945 3.10197 6.2773 2.57072 7.61487 2.57072H17.9464C19.284 2.57106 20.5666 3.10264 21.5123 4.04856C22.458 4.99448 22.9893 6.27728 22.9893 7.61485V17.9464V17.9451Z"/>
</mask>
<path d="M17.9451 0H7.61359C5.59485 0.00237237 3.65948 0.805452 2.23214 2.23304C0.804789 3.66062 0.00203295 5.59611 0 7.61485L0 17.9464C0.00237237 19.9651 0.805454 21.9005 2.23304 23.3278C3.66063 24.7551 5.59613 25.5579 7.61487 25.5599H17.9464C19.9652 25.5576 21.9005 24.7545 23.3279 23.3269C24.7552 21.8993 25.558 19.9638 25.56 17.9451V7.61357C25.5576 5.59483 24.7545 3.65947 23.327 2.23213C21.8994 0.804787 19.9639 0.00203294 17.9451 0V0ZM22.9893 17.9451C22.9893 18.6075 22.8588 19.2634 22.6053 19.8754C22.3518 20.4874 21.9803 21.0434 21.5119 21.5118C21.0435 21.9802 20.4874 22.3518 19.8754 22.6053C19.2635 22.8587 18.6075 22.9892 17.9451 22.9892H7.61359C6.27602 22.9889 4.99335 22.4573 4.04767 21.5114C3.10198 20.5654 2.57072 19.2826 2.57072 17.9451V7.61357C2.57106 6.276 3.10265 4.99334 4.04857 4.04766C4.9945 3.10197 6.2773 2.57072 7.61487 2.57072H17.9464C19.284 2.57106 20.5666 3.10264 21.5123 4.04856C22.458 4.99448 22.9893 6.27728 22.9893 7.61485V17.9464V17.9451Z" fill="white"/>
<path d="M17.9451 0H20.9451V-3H17.9451V0ZM7.61359 0V-3L7.61006 -3L7.61359 0ZM0 7.61485L-3 7.61183V7.61485H0ZM0 17.9464H-3L-3 17.9499L0 17.9464ZM7.61487 25.5599L7.61185 28.5599H7.61487V25.5599ZM17.9464 25.5599V28.5599L17.9499 28.5599L17.9464 25.5599ZM25.56 17.9451L28.56 17.9481V17.9451H25.56ZM25.56 7.61357H28.56L28.56 7.61004L25.56 7.61357ZM17.9451 0H14.9451V2.99698L17.9421 3L17.9451 0ZM7.61359 22.9892L7.61283 25.9892H7.61359V22.9892ZM2.57072 17.9451H5.57072H2.57072ZM2.57072 7.61357L-0.429277 7.61281V7.61357H2.57072ZM7.61487 2.57072V5.57072V2.57072ZM17.9464 2.57072L17.9472 -0.429284H17.9464V2.57072ZM22.9893 7.61485L19.9893 7.61485V7.61485H22.9893ZM17.9451 0V-3H7.61359V0V3H17.9451V0ZM7.61359 0L7.61006 -3C4.79681 -2.99669 2.09975 -1.87755 0.110641 0.111891L2.23214 2.23304L4.35363 4.35418C5.21922 3.48845 6.39288 3.00144 7.61712 3L7.61359 0ZM2.23214 2.23304L0.110641 0.111891C-1.87847 2.10133 -2.99717 4.79857 -3 7.61183L0 7.61485L3 7.61787C3.00123 6.39365 3.48805 5.21991 4.35363 4.35418L2.23214 2.23304ZM0 7.61485H-3V17.9464H0H3V7.61485H0ZM0 17.9464L-3 17.9499C-2.99669 20.7631 -1.87754 23.4602 0.111902 25.4493L2.23304 23.3278L4.35418 21.2063C3.48845 20.3407 3.00144 19.1671 3 17.9428L0 17.9464ZM2.23304 23.3278L0.111902 25.4493C2.10134 27.4384 4.79859 28.5571 7.61185 28.5599L7.61487 25.5599L7.61789 22.5599C6.39366 22.5587 5.21991 22.0719 4.35418 21.2063L2.23304 23.3278ZM7.61487 25.5599V28.5599H17.9464V25.5599V22.5599H7.61487V25.5599ZM17.9464 25.5599L17.9499 28.5599C20.7632 28.5566 23.4602 27.4375 25.4494 25.448L23.3279 23.3269L21.2064 21.2058C20.3408 22.0715 19.1671 22.5585 17.9429 22.5599L17.9464 25.5599ZM23.3279 23.3269L25.4494 25.448C27.4385 23.4586 28.5572 20.7614 28.56 17.9481L25.56 17.9451L22.56 17.9421C22.5588 19.1663 22.072 20.34 21.2064 21.2058L23.3279 23.3269ZM25.56 17.9451H28.56V7.61357H25.56H22.56V17.9451H25.56ZM25.56 7.61357L28.56 7.61004C28.5567 4.79679 27.4375 2.09973 25.4481 0.110629L23.327 2.23213L21.2058 4.35363C22.0716 5.21922 22.5586 6.39287 22.56 7.61709L25.56 7.61357ZM23.327 2.23213L25.4481 0.110629C23.4587 -1.87847 20.7614 -2.99717 17.9482 -3L17.9451 0L17.9421 3C19.1663 3.00123 20.3401 3.48805 21.2058 4.35363L23.327 2.23213ZM17.9451 0H20.9451V0H17.9451H14.9451V0H17.9451ZM22.9893 17.9451H19.9893C19.9893 18.2135 19.9364 18.4793 19.8337 18.7273L22.6053 19.8754L25.377 21.0234C25.7812 20.0475 25.9893 19.0015 25.9893 17.9451H22.9893ZM22.6053 19.8754L19.8337 18.7273C19.7309 18.9753 19.5804 19.2007 19.3906 19.3905L21.5119 21.5118L23.6332 23.6331C24.3802 22.8862 24.9727 21.9994 25.377 21.0234L22.6053 19.8754ZM21.5119 21.5118L19.3906 19.3905C19.2008 19.5803 18.9754 19.7309 18.7274 19.8336L19.8754 22.6053L21.0235 25.3769C21.9994 24.9726 22.8862 24.3801 23.6332 23.6331L21.5119 21.5118ZM19.8754 22.6053L18.7274 19.8336C18.4794 19.9363 18.2136 19.9892 17.9451 19.9892V22.9892V25.9892C19.0015 25.9892 20.0475 25.7811 21.0235 25.3769L19.8754 22.6053ZM17.9451 22.9892V19.9892H7.61359V22.9892V25.9892H17.9451V22.9892ZM7.61359 22.9892L7.61435 19.9892C7.0723 19.9891 6.55249 19.7737 6.16925 19.3903L4.04767 21.5114L1.92608 23.6324C3.43421 25.1409 5.47974 25.9887 7.61283 25.9892L7.61359 22.9892ZM4.04767 21.5114L6.16925 19.3903C5.78601 19.007 5.57072 18.4871 5.57072 17.9451H2.57072H-0.429277C-0.429277 20.0782 0.417951 22.1239 1.92608 23.6324L4.04767 21.5114ZM2.57072 17.9451H5.57072V7.61357H2.57072H-0.429277V17.9451H2.57072ZM2.57072 7.61357L5.57072 7.61433C5.57086 7.07229 5.78628 6.55249 6.16962 6.16925L4.04857 4.04766L1.92752 1.92606C0.419011 3.43419 -0.428736 5.47972 -0.429277 7.61281L2.57072 7.61357ZM4.04857 4.04766L6.16962 6.16925C6.55296 5.78601 7.07282 5.57072 7.61487 5.57072V2.57072V-0.429284C5.48179 -0.429284 3.43604 0.417938 1.92752 1.92606L4.04857 4.04766ZM7.61487 2.57072V5.57072H17.9464V2.57072V-0.429284H7.61487V2.57072ZM17.9464 2.57072L17.9456 5.57072C18.4877 5.57085 19.0075 5.78628 19.3907 6.16961L21.5123 4.04856L23.6339 1.92751C22.1258 0.418999 20.0803 -0.428743 17.9472 -0.429284L17.9464 2.57072ZM21.5123 4.04856L19.3907 6.16961C19.774 6.55295 19.9893 7.07281 19.9893 7.61485L22.9893 7.61485H25.9893C25.9893 5.48176 25.142 3.43601 23.6339 1.92751L21.5123 4.04856ZM22.9893 7.61485H19.9893V17.9464H22.9893H25.9893V7.61485H22.9893ZM22.9893 17.9464H25.9893V17.9451H22.9893H19.9893V17.9464H22.9893Z" fill="white" mask="url(#path-1-inside-1_607_496)"/>
<mask id="path-3-inside-2_607_496" fill="white">
<path d="M12.7787 6.26953C11.0542 6.2722 9.40122 6.9585 8.18197 8.17798C6.96273 9.39747 6.27675 11.0506 6.27441 12.7751C6.27641 14.5 6.96242 16.1536 8.18197 17.3734C9.40153 18.5932 11.0551 19.2795 12.7799 19.2819C14.505 19.2799 16.1589 18.5937 17.3787 17.3739C18.5986 16.154 19.2847 14.5002 19.2867 12.7751C19.2841 11.0502 18.5974 9.39678 17.3774 8.17746C16.1574 6.95814 14.5036 6.27246 12.7787 6.27079V6.26953ZM12.7787 16.7517C11.7243 16.7517 10.7132 16.3329 9.96766 15.5874C9.22213 14.8418 8.80329 13.8307 8.80329 12.7763C8.80329 11.722 9.22213 10.7108 9.96766 9.9653C10.7132 9.21977 11.7243 8.80094 12.7787 8.80094C13.833 8.80094 14.8442 9.21977 15.5897 9.9653C16.3352 10.7108 16.7541 11.722 16.7541 12.7763C16.7541 13.8307 16.3352 14.8418 15.5897 15.5874C14.8442 16.3329 13.833 16.7517 12.7787 16.7517Z"/>
</mask>
<path d="M12.7787 6.26953C11.0542 6.2722 9.40122 6.9585 8.18197 8.17798C6.96273 9.39747 6.27675 11.0506 6.27441 12.7751C6.27641 14.5 6.96242 16.1536 8.18197 17.3734C9.40153 18.5932 11.0551 19.2795 12.7799 19.2819C14.505 19.2799 16.1589 18.5937 17.3787 17.3739C18.5986 16.154 19.2847 14.5002 19.2867 12.7751C19.2841 11.0502 18.5974 9.39678 17.3774 8.17746C16.1574 6.95814 14.5036 6.27246 12.7787 6.27079V6.26953ZM12.7787 16.7517C11.7243 16.7517 10.7132 16.3329 9.96766 15.5874C9.22213 14.8418 8.80329 13.8307 8.80329 12.7763C8.80329 11.722 9.22213 10.7108 9.96766 9.9653C10.7132 9.21977 11.7243 8.80094 12.7787 8.80094C13.833 8.80094 14.8442 9.21977 15.5897 9.9653C16.3352 10.7108 16.7541 11.722 16.7541 12.7763C16.7541 13.8307 16.3352 14.8418 15.5897 15.5874C14.8442 16.3329 13.833 16.7517 12.7787 16.7517Z" fill="white"/>
<path d="M12.7787 6.26953H15.7787V3.26489L12.774 3.26953L12.7787 6.26953ZM6.27441 12.7751L3.27441 12.771L3.27442 12.7786L6.27441 12.7751ZM12.7799 19.2819L12.7759 22.2819L12.7834 22.2819L12.7799 19.2819ZM19.2867 12.7751L22.2867 12.7786L22.2867 12.7704L19.2867 12.7751ZM12.7787 6.27079H9.77869V9.2679L12.7758 9.27079L12.7787 6.27079ZM16.7541 12.7763H19.7541H16.7541ZM12.7787 6.26953L12.774 3.26953C10.2555 3.27343 7.84118 4.27579 6.06044 6.05687L8.18197 8.17798L10.3035 10.2991C10.9613 9.64121 11.853 9.27097 12.7833 9.26953L12.7787 6.26953ZM8.18197 8.17798L6.06044 6.05687C4.27971 7.83795 3.27782 10.2524 3.27442 12.771L6.27441 12.7751L9.27441 12.7791C9.27567 11.8488 9.64574 10.957 10.3035 10.2991L8.18197 8.17798ZM6.27441 12.7751L3.27442 12.7786C3.27734 15.2978 4.27926 17.713 6.06045 19.4945L8.18197 17.3734L10.3035 15.2523C9.64558 14.5943 9.27549 13.7021 9.27441 12.7716L6.27441 12.7751ZM8.18197 17.3734L6.06045 19.4945C7.84163 21.2761 10.2567 22.2785 12.7759 22.2819L12.7799 19.2819L12.784 16.2819C11.8535 16.2806 10.9614 15.9104 10.3035 15.2523L8.18197 17.3734ZM12.7799 19.2819L12.7834 22.2819C15.303 22.279 17.7185 21.2768 19.5001 19.4952L17.3787 17.3739L15.2574 15.2526C14.5993 15.9106 13.7071 16.2808 12.7765 16.2819L12.7799 19.2819ZM17.3787 17.3739L19.5001 19.4952C21.2816 17.7136 22.2838 15.2981 22.2867 12.7786L19.2867 12.7751L16.2867 12.7716C16.2857 13.7023 15.9155 14.5945 15.2574 15.2526L17.3787 17.3739ZM19.2867 12.7751L22.2867 12.7704C22.2828 10.2512 21.28 7.83637 19.4981 6.05553L17.3774 8.17746L15.2567 10.2994C15.9149 10.9572 16.2853 11.8492 16.2867 12.7797L19.2867 12.7751ZM17.3774 8.17746L19.4981 6.05553C17.7162 4.27469 15.3008 3.27323 12.7816 3.27079L12.7787 6.27079L12.7758 9.27079C13.7063 9.27169 14.5985 9.6416 15.2567 10.2994L17.3774 8.17746ZM12.7787 6.27079H15.7787V6.26953H12.7787H9.77869V6.27079H12.7787ZM12.7787 16.7517V13.7517C12.52 13.7517 12.2719 13.649 12.089 13.466L9.96766 15.5874L7.84634 17.7087C9.15448 19.0168 10.9287 19.7517 12.7787 19.7517V16.7517ZM9.96766 15.5874L12.089 13.466C11.9061 13.2831 11.8033 13.035 11.8033 12.7763H8.80329H5.80329C5.80329 14.6263 6.5382 16.4005 7.84634 17.7087L9.96766 15.5874ZM8.80329 12.7763H11.8033C11.8033 12.5176 11.9061 12.2695 12.089 12.0866L9.96766 9.9653L7.84634 7.84398C6.5382 9.15213 5.80329 10.9263 5.80329 12.7763H8.80329ZM9.96766 9.9653L12.089 12.0866C12.2719 11.9037 12.52 11.8009 12.7787 11.8009V8.80094V5.80094C10.9287 5.80094 9.15448 6.53584 7.84634 7.84398L9.96766 9.9653ZM12.7787 8.80094V11.8009C13.0374 11.8009 13.2855 11.9037 13.4684 12.0866L15.5897 9.9653L17.711 7.84398C16.4029 6.53584 14.6287 5.80094 12.7787 5.80094V8.80094ZM15.5897 9.9653L13.4684 12.0866C13.6513 12.2695 13.7541 12.5176 13.7541 12.7763H16.7541H19.7541C19.7541 10.9263 19.0192 9.15213 17.711 7.84398L15.5897 9.9653ZM16.7541 12.7763H13.7541C13.7541 13.035 13.6513 13.2831 13.4684 13.466L15.5897 15.5874L17.711 17.7087C19.0192 16.4005 19.7541 14.6263 19.7541 12.7763H16.7541ZM15.5897 15.5874L13.4684 13.466C13.2855 13.649 13.0374 13.7517 12.7787 13.7517V16.7517V19.7517C14.6287 19.7517 16.4029 19.0168 17.711 17.7087L15.5897 15.5874Z" fill="white" mask="url(#path-3-inside-2_607_496)"/>
<path d="M19.4473 6.1333C19.485 6.1333 19.5156 6.1639 19.5156 6.20166C19.5156 6.23946 19.4851 6.27002 19.4473 6.27002C19.4095 6.26997 19.3789 6.23943 19.3789 6.20166C19.379 6.16393 19.4095 6.13335 19.4473 6.1333Z" fill="white" stroke="white" stroke-width="3"/>
</svg>
