<svg width="26" height="26" viewBox="0 0 26 26" fill="none" xmlns="http://www.w3.org/2000/svg">
<mask id="path-1-inside-1_607_494" fill="white">
<path fill-rule="evenodd" clip-rule="evenodd" d="M21.4079 3.6414C20.2495 2.48247 18.8733 1.56411 17.3586 0.939172C15.8439 0.314237 14.2205 -0.00492584 12.5819 5.7467e-05C5.70533 5.7467e-05 0.107394 5.57002 0.104598 12.4175C0.101556 14.5979 0.676303 16.7402 1.77033 18.6263L0 25.0588L6.61427 23.3321C8.44513 24.3239 10.4946 24.843 12.5769 24.8423H12.5819C19.458 24.8423 25.0554 19.2718 25.0587 12.4248C25.0629 10.7918 24.7422 9.17433 24.1155 7.66642C23.4887 6.15851 22.5683 4.7903 21.4079 3.6414ZM12.5819 22.7464H12.5775C10.7212 22.747 8.89869 22.2502 7.29947 21.3078L6.92079 21.084L2.99586 22.1088L4.04351 18.3002L3.79684 17.9086C2.75891 16.2654 2.209 14.3611 2.2111 12.4175C2.2111 6.72731 6.86542 2.0976 12.5858 2.0976C15.33 2.0927 17.9637 3.178 19.9077 5.11478C21.8518 7.05157 22.9469 9.68122 22.9522 12.4254C22.95 18.1162 18.2979 22.7464 12.5819 22.7464ZM18.2699 15.0168C17.9584 14.8613 16.4241 14.1107 16.1399 14.0072C15.8558 13.9037 15.646 13.8517 15.4385 14.1627C15.231 14.4737 14.6331 15.1695 14.4513 15.3793C14.2695 15.589 14.0877 15.612 13.7761 15.4565C13.4646 15.301 12.4594 14.9737 11.2686 13.9166C10.3418 13.0938 9.7164 12.078 9.53461 11.7676C9.35283 11.4571 9.51504 11.2888 9.67109 11.1344C9.81149 10.9951 9.98265 10.7719 10.1387 10.5907C10.2948 10.4095 10.3468 10.2797 10.4503 10.0728C10.5537 9.8658 10.5023 9.68457 10.4245 9.52963C10.3468 9.37469 9.72311 7.84712 9.46358 7.22569C9.21019 6.62048 8.95345 6.7027 8.76216 6.69319C8.58037 6.68424 8.37062 6.682 8.16422 6.682C8.00643 6.68611 7.85119 6.7227 7.70818 6.78949C7.56516 6.85628 7.43746 6.95184 7.33303 7.07019C7.0472 7.38119 6.24174 8.13295 6.24174 9.65884C6.24174 11.1847 7.36044 12.6614 7.51482 12.8684C7.6692 13.0753 9.71305 16.2093 12.8404 17.5535C13.4211 17.8021 14.0144 18.0202 14.618 18.2068C15.3647 18.4428 16.0443 18.4098 16.5813 18.3298C17.1803 18.2409 18.4271 17.5792 18.6861 16.8543C18.9451 16.1294 18.9456 15.5085 18.8679 15.3793C18.7901 15.2501 18.582 15.1718 18.2699 15.0168Z"/>
</mask>
<path fill-rule="evenodd" clip-rule="evenodd" d="M21.4079 3.6414C20.2495 2.48247 18.8733 1.56411 17.3586 0.939172C15.8439 0.314237 14.2205 -0.00492584 12.5819 5.7467e-05C5.70533 5.7467e-05 0.107394 5.57002 0.104598 12.4175C0.101556 14.5979 0.676303 16.7402 1.77033 18.6263L0 25.0588L6.61427 23.3321C8.44513 24.3239 10.4946 24.843 12.5769 24.8423H12.5819C19.458 24.8423 25.0554 19.2718 25.0587 12.4248C25.0629 10.7918 24.7422 9.17433 24.1155 7.66642C23.4887 6.15851 22.5683 4.7903 21.4079 3.6414ZM12.5819 22.7464H12.5775C10.7212 22.747 8.89869 22.2502 7.29947 21.3078L6.92079 21.084L2.99586 22.1088L4.04351 18.3002L3.79684 17.9086C2.75891 16.2654 2.209 14.3611 2.2111 12.4175C2.2111 6.72731 6.86542 2.0976 12.5858 2.0976C15.33 2.0927 17.9637 3.178 19.9077 5.11478C21.8518 7.05157 22.9469 9.68122 22.9522 12.4254C22.95 18.1162 18.2979 22.7464 12.5819 22.7464ZM18.2699 15.0168C17.9584 14.8613 16.4241 14.1107 16.1399 14.0072C15.8558 13.9037 15.646 13.8517 15.4385 14.1627C15.231 14.4737 14.6331 15.1695 14.4513 15.3793C14.2695 15.589 14.0877 15.612 13.7761 15.4565C13.4646 15.301 12.4594 14.9737 11.2686 13.9166C10.3418 13.0938 9.7164 12.078 9.53461 11.7676C9.35283 11.4571 9.51504 11.2888 9.67109 11.1344C9.81149 10.9951 9.98265 10.7719 10.1387 10.5907C10.2948 10.4095 10.3468 10.2797 10.4503 10.0728C10.5537 9.8658 10.5023 9.68457 10.4245 9.52963C10.3468 9.37469 9.72311 7.84712 9.46358 7.22569C9.21019 6.62048 8.95345 6.7027 8.76216 6.69319C8.58037 6.68424 8.37062 6.682 8.16422 6.682C8.00643 6.68611 7.85119 6.7227 7.70818 6.78949C7.56516 6.85628 7.43746 6.95184 7.33303 7.07019C7.0472 7.38119 6.24174 8.13295 6.24174 9.65884C6.24174 11.1847 7.36044 12.6614 7.51482 12.8684C7.6692 13.0753 9.71305 16.2093 12.8404 17.5535C13.4211 17.8021 14.0144 18.0202 14.618 18.2068C15.3647 18.4428 16.0443 18.4098 16.5813 18.3298C17.1803 18.2409 18.4271 17.5792 18.6861 16.8543C18.9451 16.1294 18.9456 15.5085 18.8679 15.3793C18.7901 15.2501 18.582 15.1718 18.2699 15.0168Z" fill="white"/>
<path d="M21.4079 3.6414L6.55505 18.4871L6.594 18.526L6.63315 18.5648L21.4079 3.6414ZM12.5819 5.7467e-05V21.0001H12.6139L12.6458 21L12.5819 5.7467e-05ZM0.104598 12.4175L21.1046 12.4468L21.1046 12.4365L21.1046 12.4261L0.104598 12.4175ZM1.77033 18.6263L22.0175 24.1987L24.3544 15.7075L19.9355 8.08942L1.77033 18.6263ZM0 25.0588L-20.2472 19.4864L-29.9025 54.5688L5.30442 45.3778L0 25.0588ZM6.61427 23.3321L16.6173 4.86749L9.32952 0.91943L1.30985 3.01302L6.61427 23.3321ZM12.5769 24.8423V3.84229L12.5696 3.84229L12.5769 24.8423ZM25.0587 12.4248L4.05878 12.3712L4.05872 12.3929L4.05871 12.4145L25.0587 12.4248ZM12.5775 22.7464V1.74642L12.5713 1.74642L12.5775 22.7464ZM7.29947 21.3078L-3.38289 39.3878L-3.37256 39.3939L-3.36222 39.4L7.29947 21.3078ZM6.92079 21.084L17.6031 3.00402L10.0756 -1.44353L1.61592 0.765127L6.92079 21.084ZM2.99586 22.1088L-17.2521 16.539L-26.9016 51.6183L8.30072 42.4277L2.99586 22.1088ZM4.04351 18.3002L24.2914 23.8699L26.7475 14.9413L21.8114 7.10637L4.04351 18.3002ZM3.79684 17.9086L21.5648 6.71483L21.5582 6.70448L21.5517 6.69415L3.79684 17.9086ZM2.2111 12.4175L23.2111 12.4402L23.2111 12.4289V12.4175H2.2111ZM12.5858 2.0976V23.0976H12.6046L12.6233 23.0976L12.5858 2.0976ZM22.9522 12.4254L43.9522 12.4336L43.9522 12.4091L43.9522 12.3845L22.9522 12.4254ZM18.2699 15.0168L8.89194 33.8065L8.91216 33.8166L8.93242 33.8267L18.2699 15.0168ZM11.2686 13.9166L-2.67305 29.6211L-2.67297 29.6211L11.2686 13.9166ZM9.67109 11.1344L24.4399 26.0637L24.4503 26.0533L24.4608 26.0429L9.67109 11.1344ZM9.46358 7.22569L28.8415 -0.867335L28.8379 -0.875808L28.8344 -0.884278L9.46358 7.22569ZM8.76216 6.69319L9.80473 -14.2809L9.79475 -14.2814L8.76216 6.69319ZM8.16422 6.682V-14.318H7.89095L7.61778 -14.3109L8.16422 6.682ZM7.33303 7.07019L22.7948 21.2805L22.9388 21.1238L23.0797 20.9642L7.33303 7.07019ZM12.8404 17.5535L4.54806 36.8469L4.56066 36.8523L4.57327 36.8577L12.8404 17.5535ZM14.618 18.2068L20.9475 -1.81665L20.8836 -1.83685L20.8195 -1.85664L14.618 18.2068ZM16.5813 18.3298L13.4974 -2.44251L13.4873 -2.441L16.5813 18.3298ZM21.4079 3.6414L36.2607 -11.2043C33.1445 -14.3219 29.4425 -16.7924 25.3678 -18.4735L17.3586 0.939172L9.34943 20.3519C8.30413 19.9206 7.35444 19.2869 6.55505 18.4871L21.4079 3.6414ZM17.3586 0.939172L25.3678 -18.4735C21.293 -20.1547 16.926 -21.0133 12.5181 -20.9998L12.5819 5.7467e-05L12.6458 21C11.515 21.0034 10.3947 20.7831 9.34943 20.3519L17.3586 0.939172ZM12.5819 5.7467e-05V-20.9999C-5.80087 -20.9999 -20.8878 -6.12141 -20.8954 12.409L0.104598 12.4175L21.1046 12.4261C21.1026 17.2615 17.2115 21.0001 12.5819 21.0001V5.7467e-05ZM0.104598 12.4175L-20.8954 12.3882C-20.9036 18.2793 -19.3507 24.0673 -16.3949 29.1631L1.77033 18.6263L19.9355 8.08942C20.7033 9.4131 21.1067 10.9166 21.1046 12.4468L0.104598 12.4175ZM1.77033 18.6263L-18.4769 13.0539L-20.2472 19.4864L0 25.0588L20.2472 30.6311L22.0175 24.1987L1.77033 18.6263ZM0 25.0588L5.30442 45.3778L11.9187 43.6511L6.61427 23.3321L1.30985 3.01302L-5.30442 4.73972L0 25.0588ZM6.61427 23.3321L-3.38873 41.7966C1.51585 44.4536 7.00613 45.8442 12.5842 45.8423L12.5769 24.8423L12.5696 3.84229C13.9831 3.8418 15.3744 4.19419 16.6173 4.86749L6.61427 23.3321ZM12.5769 24.8423V45.8423H12.5819V24.8423V3.84229H12.5769V24.8423ZM12.5819 24.8423V45.8423C30.967 45.8423 46.0496 30.9608 46.0587 12.4351L25.0587 12.4248L4.05871 12.4145C4.06108 7.58274 7.94897 3.84229 12.5819 3.84229V24.8423ZM25.0587 12.4248L46.0586 12.4784C46.0699 8.06092 45.2026 3.68535 43.5071 -0.393757L24.1155 7.66642L4.72389 15.7266C4.28193 14.6633 4.05584 13.5227 4.05878 12.3712L25.0587 12.4248ZM24.1155 7.66642L43.5071 -0.393757C41.8116 -4.47286 39.3218 -8.17407 36.1826 -11.282L21.4079 3.6414L6.63315 18.5648C5.81485 17.7547 5.16584 16.7899 4.72389 15.7266L24.1155 7.66642ZM12.5819 22.7464V1.74642H12.5775V22.7464V43.7464H12.5819V22.7464ZM12.5775 22.7464L12.5713 1.74642C14.4669 1.74586 16.328 2.25316 17.9612 3.21556L7.29947 21.3078L-3.36222 39.4C1.46937 42.2472 6.97553 43.7481 12.5837 43.7464L12.5775 22.7464ZM7.29947 21.3078L17.9818 3.22776L17.6031 3.00402L6.92079 21.084L-3.76157 39.1641L-3.38289 39.3878L7.29947 21.3078ZM6.92079 21.084L1.61592 0.765127L-2.30901 1.78985L2.99586 22.1088L8.30072 42.4277L12.2257 41.403L6.92079 21.084ZM2.99586 22.1088L23.2438 27.6785L24.2914 23.8699L4.04351 18.3002L-16.2044 12.7304L-17.2521 16.539L2.99586 22.1088ZM4.04351 18.3002L21.8114 7.10637L21.5648 6.71483L3.79684 17.9086L-13.9711 29.1024L-13.7244 29.494L4.04351 18.3002ZM3.79684 17.9086L21.5517 6.69415C22.6378 8.41371 23.2133 10.4064 23.2111 12.4402L2.2111 12.4175L-18.7889 12.3949C-18.7953 18.3159 -17.12 24.117 -13.958 29.1231L3.79684 17.9086ZM2.2111 12.4175H23.2111C23.2111 18.4301 18.3583 23.0976 12.5858 23.0976V2.0976V-18.9024C-4.6275 -18.9024 -18.7889 -4.97545 -18.7889 12.4175H2.2111ZM12.5858 2.0976L12.6233 23.0976C9.79853 23.1026 7.08739 21.9854 5.08622 19.9917L19.9077 5.11478L34.7293 -9.76213C28.84 -15.6294 20.8615 -18.9172 12.5483 -18.9024L12.5858 2.0976ZM19.9077 5.11478L5.08622 19.9917C3.08505 17.998 1.95774 15.291 1.95225 12.4662L22.9522 12.4254L43.9522 12.3845C43.936 4.07143 40.6185 -3.89484 34.7293 -9.76213L19.9077 5.11478ZM22.9522 12.4254L1.95221 12.4171C1.95457 6.42719 6.78928 1.74642 12.5819 1.74642V22.7464V43.7464C29.8065 43.7464 43.9454 29.8051 43.9522 12.4336L22.9522 12.4254ZM18.2699 15.0168L27.6479 -3.7729C27.3765 -3.90834 26.8173 -4.18231 26.2879 -4.43664C26.02 -4.56533 25.6908 -4.72218 25.3721 -4.86972C25.2164 -4.94184 25.0023 -5.03997 24.767 -5.14365C24.6665 -5.18793 24.0645 -5.45608 23.3259 -5.72506L16.1399 14.0072L8.95398 33.7395C8.83765 33.6971 8.73585 33.6588 8.65171 33.6266C8.56698 33.5942 8.49202 33.5649 8.42865 33.5397C8.36498 33.5145 8.30822 33.4916 8.25949 33.4717C8.21059 33.4518 8.16679 33.4337 8.12879 33.4179C8.05394 33.3867 7.99201 33.3602 7.94625 33.3405C7.89978 33.3205 7.86166 33.3039 7.83353 33.2915C7.77912 33.2675 7.74315 33.2512 7.73123 33.2458C7.71775 33.2397 7.71518 33.2384 7.72547 33.2432C7.7352 33.2477 7.75204 33.2555 7.77662 33.2671C7.80095 33.2785 7.8301 33.2922 7.86413 33.3084C7.93292 33.341 8.01286 33.3791 8.10138 33.4216C8.18931 33.4639 8.28053 33.5079 8.37095 33.5518C8.4612 33.5956 8.54799 33.6378 8.62658 33.6762C8.70551 33.7148 8.77304 33.7479 8.82461 33.7733C8.85032 33.786 8.86997 33.7957 8.88354 33.8024C8.89848 33.8098 8.90026 33.8107 8.89194 33.8065L18.2699 15.0168ZM16.1399 14.0072L23.3259 -5.72506C23.1619 -5.78478 22.0755 -6.19047 20.6808 -6.51369C19.2167 -6.85299 16.6155 -7.30256 13.3908 -6.93636C5.35386 -6.02363 0.368594 -1.08747 -2.0297 2.50674L15.4385 14.1627L32.9067 25.8187C31.944 27.2615 30.2769 29.3525 27.6253 31.2057C24.7756 33.1972 21.5016 34.4125 18.1301 34.7954C15.0194 35.1487 12.5368 34.7121 11.1985 34.4019C9.92953 34.1078 8.9759 33.7474 8.95398 33.7395L16.1399 14.0072ZM15.4385 14.1627L-2.0297 2.50674C-1.79108 2.14913 -1.59841 1.8869 -1.51088 1.76913C-1.40994 1.6333 -1.33438 1.53627 -1.29848 1.49052C-1.23017 1.40347 -1.20194 1.37044 -1.23261 1.40744C-1.29128 1.47822 -1.37415 1.5749 -1.4182 1.62573L14.4513 15.3793L30.3207 29.1328C30.4585 28.9739 30.7655 28.6178 31.1031 28.2105C31.2074 28.0846 32.104 27.0216 32.9067 25.8187L15.4385 14.1627ZM14.4513 15.3793L-1.4182 1.62573C0.535787 -0.62887 4.84536 -4.49943 11.7253 -5.30327C17.6662 -5.99739 22.0022 -3.9082 23.1541 -3.33325L13.7761 15.4565L4.39815 34.2462C5.86167 34.9766 10.4443 37.1321 16.5994 36.413C23.6936 35.5841 28.185 31.5972 30.3207 29.1328L14.4513 15.3793ZM13.7761 15.4565L23.1541 -3.33325C22.8062 -3.5069 22.5194 -3.6384 22.3604 -3.71031C22.1941 -3.78547 22.0555 -3.84579 21.9926 -3.87312C21.957 -3.88859 21.9251 -3.90238 21.9068 -3.91026C21.8829 -3.92057 21.8775 -3.9229 21.8674 -3.9273C21.853 -3.93351 21.8666 -3.92768 21.8917 -3.91659C22.0176 -3.86109 22.3242 -3.72282 22.7084 -3.51864C23.5115 -3.09175 24.3824 -2.52281 25.2101 -1.78797L11.2686 13.9166L-2.67297 29.6211C-0.654352 31.4131 1.31449 32.6743 2.9958 33.5679C3.81903 34.0055 4.50978 34.3208 4.94897 34.5144C5.08811 34.5758 5.36073 34.6936 5.26297 34.6511C5.25964 34.6497 5.17579 34.6134 5.05906 34.5606C4.94952 34.5111 4.70712 34.4004 4.39815 34.2462L13.7761 15.4565ZM11.2686 13.9166L25.2102 -1.7879C26.1284 -0.972829 26.6901 -0.261581 26.9586 0.0985508C27.2608 0.503933 27.4864 0.865946 27.6562 1.15585L9.53461 11.7676L-8.58695 22.3793C-8.0549 23.2879 -6.09613 26.5822 -2.67305 29.6211L11.2686 13.9166ZM9.53461 11.7676L27.6562 1.15585C28.7039 2.9451 29.8607 5.56053 30.2873 8.89269C30.7344 12.3851 30.2606 15.7564 29.1543 18.7254C28.1217 21.4963 26.7211 23.4306 25.8742 24.4758C25.4365 25.0159 25.0573 25.4264 24.8265 25.669C24.7072 25.7944 24.6091 25.8941 24.5466 25.9571C24.4866 26.0175 24.4412 26.0623 24.4399 26.0637L9.67109 11.1344L-5.09766 -3.7949C-5.12532 -3.76753 -5.34304 -3.55323 -5.60054 -3.28261C-5.86941 -3.00005 -6.28547 -2.54863 -6.75744 -1.96618C-7.67302 -0.83627 -9.13205 1.1884 -10.202 4.05957C-12.8648 11.2053 -11.1994 17.918 -8.58695 22.3793L9.53461 11.7676ZM9.67109 11.1344L24.4608 26.0429C24.942 25.5656 25.3139 25.153 25.5305 24.9074C25.7575 24.6501 25.9401 24.4321 26.0346 24.3187C26.0856 24.2574 26.1298 24.2039 26.1554 24.1729C26.1911 24.1296 26.1905 24.1303 26.2015 24.117C26.2188 24.0961 26.1522 24.1772 26.0519 24.2937L10.1387 10.5907L-5.77443 -3.11228C-5.95278 -2.90516 -6.0993 -2.72825 -6.16238 -2.65198C-6.19156 -2.61669 -6.23249 -2.56706 -6.237 -2.56159C-6.25168 -2.5438 -6.2476 -2.5488 -6.23651 -2.56211C-6.22186 -2.5797 -6.11817 -2.7044 -5.96766 -2.87504C-5.888 -2.96535 -5.77864 -3.08743 -5.64466 -3.23132C-5.51201 -3.3738 -5.33459 -3.55989 -5.11863 -3.77413L9.67109 11.1344ZM10.1387 10.5907L26.0519 24.2937C27.1035 23.0724 27.9454 21.8339 28.6266 20.6204C28.9093 20.1167 29.115 19.7038 29.1941 19.5443C29.2161 19.4999 29.2345 19.4624 29.2458 19.4394C29.2516 19.4276 29.2568 19.4171 29.2601 19.4103C29.2643 19.4017 29.2653 19.3997 29.2672 19.3958C29.274 19.382 29.2574 19.4159 29.2332 19.4642L10.4503 10.0728L-8.33271 0.681271C-8.38274 0.781333 -8.42358 0.864594 -8.44009 0.89825C-8.4671 0.953305 -8.44917 0.916696 -8.4343 0.886703C-8.39896 0.815429 -8.23545 0.485147 -7.99815 0.0623949C-7.74104 -0.395656 -7.41158 -0.93871 -7.00077 -1.5293C-6.59194 -2.11703 -6.17733 -2.6444 -5.77443 -3.11228L10.1387 10.5907ZM10.4503 10.0728L29.2332 19.4642C33.6162 10.6982 30.607 2.92709 29.1939 0.111052L10.4245 9.52963L-8.34486 18.9482C-8.88391 17.874 -10.014 15.4074 -10.3764 12.007C-10.7766 8.25191 -10.1422 4.30028 -8.33271 0.681271L10.4503 10.0728ZM10.4245 9.52963L29.1939 0.111052C29.3204 0.363097 29.4137 0.562158 29.4553 0.651609C29.5047 0.757709 29.5428 0.842171 29.5652 0.892143C29.6092 0.990088 29.639 1.05905 29.6464 1.07603C29.6626 1.11362 29.6624 1.11364 29.6365 1.05221C29.5884 0.937696 29.5148 0.76059 29.4181 0.526796C29.3227 0.296146 29.2253 0.0599287 29.1237 -0.1862C29.0295 -0.414493 28.9257 -0.665596 28.8415 -0.867335L9.46358 7.22569L-9.91432 15.3187C-9.80174 15.5883 -9.62667 16.0149 -9.39361 16.5784C-9.29222 16.8235 -9.17913 17.0962 -9.08036 17.3311C-9.03273 17.4444 -8.96948 17.594 -8.90323 17.7472C-8.87088 17.822 -8.81942 17.9403 -8.75769 18.078C-8.72958 18.1406 -8.56685 18.5058 -8.34486 18.9482L10.4245 9.52963ZM9.46358 7.22569L28.8344 -0.884278C27.7784 -3.40645 24.8831 -9.04525 18.0211 -12.2699C14.7442 -13.8099 11.8122 -14.1752 10.0944 -14.2717C9.34 -14.314 8.71818 -14.3057 8.70977 -14.3056C8.48135 -14.3043 9.11579 -14.3152 9.80473 -14.2809L8.76216 6.69319L7.71958 27.6673C8.45635 27.7039 9.14065 27.6925 8.96389 27.6936C8.96152 27.6936 8.92197 27.6939 8.86986 27.6939C8.8153 27.6939 8.7321 27.6938 8.63008 27.6926C8.42816 27.6902 8.11826 27.6835 7.73923 27.6623C6.1313 27.5719 3.31515 27.2257 0.158031 25.742C-6.46442 22.6299 -9.10467 17.2526 -9.90724 15.3357L9.46358 7.22569ZM8.76216 6.69319L9.79475 -14.2814C9.08204 -14.3165 8.4553 -14.318 8.16422 -14.318V6.682V27.682C8.19773 27.682 8.1776 27.6822 8.12346 27.6813C8.07542 27.6805 7.9336 27.6778 7.72956 27.6678L8.76216 6.69319ZM8.16422 6.682L7.61778 -14.3109C4.57459 -14.2317 1.58033 -13.526 -1.17802 -12.2377L7.70818 6.78949L16.5944 25.8167C14.122 26.9714 11.4383 27.6039 8.71066 27.6749L8.16422 6.682ZM7.70818 6.78949L-1.17802 -12.2377C-3.93633 -10.9495 -6.39945 -9.10655 -8.4136 -6.82382L7.33303 7.07019L23.0797 20.9642C21.2744 23.0102 19.0667 24.6621 16.5944 25.8167L7.70818 6.78949ZM7.33303 7.07019L-8.12872 -7.14017C-7.67292 -7.63611 -9.89769 -5.4252 -11.5812 -2.46024C-13.4533 0.836661 -14.7583 4.9499 -14.7583 9.65884H6.24174H27.2417C27.2417 12.8419 26.3395 15.8163 24.9416 18.2781C23.7323 20.408 22.0532 22.0875 22.7948 21.2805L7.33303 7.07019ZM6.24174 9.65884H-14.7583C-14.7583 15.1771 -12.8648 19.3836 -11.8842 21.3048C-11.3 22.4495 -10.721 23.3892 -10.2645 24.0793C-10.0307 24.4327 -9.81844 24.7367 -9.6411 24.9836C-9.46519 25.2286 -9.31391 25.43 -9.31788 25.4247L7.51482 12.8684L24.3475 0.312083C24.3441 0.307503 24.5452 0.575126 24.766 0.909012C24.9693 1.21636 25.2397 1.65269 25.525 2.21165C25.8011 2.75254 26.1898 3.59995 26.5269 4.7192C26.8588 5.8214 27.2417 7.5204 27.2417 9.65884H6.24174ZM7.51482 12.8684L-9.31788 25.4247C-9.86939 24.6853 -8.22682 27.0579 -6.21948 29.1877C-4.27615 31.2497 -0.683834 34.5983 4.54806 36.8469L12.8404 17.5535L21.1326 -1.74002C22.2768 -1.24826 23.0573 -0.712335 23.4902 -0.38037C23.9321 -0.0414751 24.2086 0.236559 24.345 0.38122C24.4909 0.536126 24.5954 0.665566 24.6728 0.767161C24.7165 0.824511 24.7548 0.87729 24.7828 0.916755C24.794 0.932511 24.802 0.943954 24.7794 0.911692C24.7762 0.907048 24.7371 0.850994 24.6971 0.79439C24.6835 0.775015 24.5355 0.564067 24.3475 0.312083L7.51482 12.8684ZM12.8404 17.5535L4.57327 36.8577C5.82874 37.3954 7.11153 37.8669 8.41636 38.2702L14.618 18.2068L20.8195 -1.85664C20.9173 -1.82643 21.0134 -1.79111 21.1074 -1.75083L12.8404 17.5535ZM14.618 18.2068L8.28845 38.2302C13.1932 39.7806 17.3872 39.4415 19.6752 39.1007L16.5813 18.3298L13.4873 -2.441C14.7013 -2.62185 17.5362 -2.89496 20.9475 -1.81665L14.618 18.2068ZM16.5813 18.3298L19.6651 39.1022C23.8849 38.4757 27.1661 36.7396 29.0522 35.5368C30.4167 34.6667 35.887 31.127 38.462 23.9193L18.6861 16.8543L-1.08981 9.78927C0.226562 6.10456 2.27437 3.75652 3.36121 2.65164C4.56667 1.42617 5.6949 0.618628 6.47019 0.124238C7.28071 -0.392619 8.12654 -0.834672 9.01907 -1.20821C9.73946 -1.5097 11.3156 -2.1186 13.4974 -2.44251L16.5813 18.3298ZM18.6861 16.8543L38.462 23.9193C39.2043 21.8415 39.6478 19.7409 39.8242 17.7136C39.9104 16.7225 39.9616 15.4238 39.8452 13.9308C39.8194 13.5991 39.6276 9.14891 36.8615 4.55196L18.8679 15.3793L0.874275 26.2066C-0.785731 23.4479 -1.38721 20.9825 -1.59494 20.0592C-1.86722 18.8489 -1.97711 17.8449 -2.02785 17.1939C-2.13052 15.8763 -2.08116 14.8023 -2.01773 14.0732C-1.88693 12.5699 -1.57313 11.1421 -1.08981 9.78927L18.6861 16.8543ZM18.8679 15.3793L36.8615 4.55196C35.1816 1.76023 33.2002 -0.0837111 31.8125 -1.18122C30.4691 -2.24366 29.2822 -2.91666 28.7324 -3.21733C28.1631 -3.52867 27.6735 -3.7622 27.6034 -3.79597C27.3995 -3.89424 27.5404 -3.8263 27.6074 -3.79304L18.2699 15.0168L8.93242 33.8267C9.15547 33.9374 9.43941 34.0732 9.36479 34.0373C9.36128 34.0356 9.34075 34.0257 9.31067 34.011C9.28034 33.9961 9.23183 33.9723 9.17087 33.9418C9.05668 33.8846 8.84591 33.7775 8.58115 33.6327C8.13207 33.3871 7.03128 32.7676 5.75857 31.7611C4.44153 30.7194 2.51527 28.9337 0.874275 26.2066L18.8679 15.3793Z" fill="white" mask="url(#path-1-inside-1_607_494)"/>
</svg>
